<svg width="564" height="828" viewBox="0 0 564 828" fill="none" xmlns="http://www.w3.org/2000/svg">
<path d="M191.268 821.49C186.614 818.607 172.485 808.492 159.869 799.013C48.4655 715.308 -8.21734 590.708 1.54195 450.98C2.52476 436.909 6.34962 414.045 18.6102 348.954L34.4118 265.063L142.511 285.425L250.61 305.786L251.507 301.026C252.921 293.516 250.697 268.2 247.663 257.288C243.602 242.679 233.851 228.217 222.094 219.366L212.446 212.103L180.957 205.215C148.329 198.079 143.338 196.384 128.72 187.47C105.865 173.534 86.387 143.706 83.6267 118.414C82.6664 109.615 83.0886 105.717 86.7965 89.1504C90.4078 73.0164 92.0057 68.4018 97.0518 59.5349C114.803 28.342 140.253 7.32611 167.212 1.59709C172.593 0.453553 172.882 0.542297 173.856 3.63334C174.938 7.06631 177.457 30.0034 177.031 32.539C176.892 33.3655 172.257 35.8549 166.73 38.071C161.204 40.2872 153.473 44.8912 149.55 48.3021C127.932 67.0996 113.877 101.558 119.608 121.713C123.303 134.709 131.358 146.005 143.419 155.104L154.375 163.369L177.007 168.14C190.497 170.984 202.818 172.846 207.506 172.747C227.473 172.33 243.055 163.058 268.07 136.711C297.291 105.934 312.524 91.4088 323.295 84.0516C347.13 67.7718 370.237 60.8787 399.709 61.2561C413.558 61.4335 445.52 67.1055 459.355 71.8409C499.806 85.6864 526.427 120.017 529.263 161.996C529.991 172.776 529.534 176.93 525.819 193.3C520.999 214.538 516.178 225.101 505.109 238.675C489.029 258.396 467.704 269.287 435.283 274.336L423.994 276.094L409.96 302.435C402.242 316.923 395.382 329.66 394.716 330.739C393.646 332.475 403.362 334.558 478.591 348.729L563.676 364.755L548.524 445.125C540.188 489.328 531.364 532.64 528.909 541.372C510.295 607.563 475.736 667.632 428.943 715.128C406.946 737.455 362.684 769.953 334.938 784.147C316.094 793.788 289.312 805.102 271.465 810.963C252.128 817.312 210.024 827.359 204.229 827.007C201.609 826.847 196.194 824.542 191.268 821.49ZM233.364 785.896C288.897 772.065 342.128 745.089 382.439 710.348C426.845 672.078 459.144 626.935 481.629 571.716C493.332 542.975 495.399 535.013 509.781 463.267L523.751 393.577L292.623 350.042L61.4942 306.507L51.0118 362.317C39.8417 421.788 35.5283 452.058 35.1631 473.537C33.0153 599.886 87.9865 706.848 193.062 780.773C202.984 787.754 207.746 790.309 210.915 790.352C213.292 790.384 223.394 788.379 233.364 785.896ZM348.539 322.778L358.713 324.695L366.641 309.834C380.41 284.023 385.014 274.512 384.267 273.418C383.868 272.834 379.408 270.664 374.356 268.596C359.683 262.589 348.15 253.055 339.858 240.08C327.226 220.314 324.528 201.867 330.622 176.942C333.65 164.552 341.284 145.587 343.984 143.743C344.781 143.198 369.318 157.166 372.185 159.796C373.354 160.868 372.896 162.809 370.144 168.45C365.961 177.025 362.004 196.121 362.656 204.586C364.478 228.253 388.088 242.332 422.167 240.074C462.061 237.431 482.007 222.517 491.534 188.208C497.505 166.703 494.749 148.911 482.728 131.377C471.292 114.695 459.174 107.306 432.431 100.708C416.309 96.7296 394.183 95.1658 381.56 97.1124C363.311 99.9266 339.369 112.46 326.39 125.992C282.821 171.421 271.563 182.57 262.718 189.049C256.965 193.264 252.201 197.012 252.132 197.377C252.063 197.743 255.007 201.485 258.675 205.693C267.238 215.52 277.396 234.374 281.132 247.379C284.917 260.556 287.044 278.597 286.801 295.487C286.695 302.882 286.721 309.874 286.859 311.025C287.067 312.769 291.364 313.76 312.737 316.989C326.833 319.119 342.944 321.724 348.539 322.778Z" fill="#154620"/>
</svg>
