<svg width="1512" height="181" viewBox="0 0 1512 181" fill="none" xmlns="http://www.w3.org/2000/svg">
<path d="M0 71C0 71 459.032 142 756 142C1052.97 142 1512 71 1512 71V180.021H0V71Z" fill="#092911"/>
<path d="M1214.54 84.79C1215.26 87.5376 1216.85 89.8297 1219.01 91.6245C1221.08 93.3438 1223.49 94.0929 1226.19 94.0476C1227.93 94.0186 1229.4 93.538 1230.88 92.6366C1232.24 91.8019 1232.57 90.135 1233.93 89.3916C1233.79 91.6271 1234.59 93.6553 1234.56 95.8381C1234.52 97.9706 1234.54 100.222 1234.71 102.344C1234.78 103.235 1234.97 104.166 1235.47 104.919C1236.23 105.22 1237.76 104.746 1238.41 104.363C1239.17 103.911 1239.89 103.656 1240.45 102.981C1241.16 102.119 1241.94 101.29 1242.68 100.449C1243.06 100.01 1243.97 99.0901 1243.97 98.1474C1243.98 97.2737 1243.44 96.8404 1242.92 96.2438C1242.01 96.2076 1241.07 96.0691 1241.4 94.8566C1241.87 93.116 1240.72 91.3754 1241.17 89.7527C1241.76 87.6506 1243.45 86.1119 1244.73 84.4547C1245.15 87.7605 1245.28 91.0913 1245.48 94.4156C1245.58 96.0212 1245.69 97.6257 1245.87 99.2244C1246.07 101.07 1245.74 101.914 1244.72 103.429C1244.26 104.101 1243.49 105.055 1243.22 105.838C1242.77 107.214 1243.1 107.317 1244.08 107.736C1246.69 108.846 1250.13 108.368 1252.75 107.408C1256.02 106.21 1253.18 103.288 1253.13 100.959C1253.1 99.6653 1253.33 98.3988 1253.5 97.1234C1253.72 95.4306 1253.55 93.767 1253.77 92.0777C1254.19 88.8741 1254.66 85.6496 1255.6 82.5559C1256.15 81.4593 1257.18 80.5511 1257.27 79.2672C1257.28 79.0965 1257.13 77.6124 1257.59 77.7347C1258.1 77.8682 1258.99 78.1774 1259.37 78.5347C1262.19 79.4749 1264.92 80.4906 1267.95 79.9553C1269.46 79.6897 1270.95 79.3502 1272.49 79.2326C1273.08 80.7518 1273.93 82.1437 1274.67 83.5867C1276.1 86.3573 1276.42 89.2011 1276.51 92.2887C1276.57 93.6642 1276.51 95.0416 1276.34 96.4067C1276.13 97.924 1275.2 98.9695 1274.6 100.304C1274.1 101.396 1274.26 101.883 1274.32 103.068C1275.85 103.116 1277.39 103.079 1278.9 102.836C1280.35 102.602 1281.83 102.245 1283.2 101.699C1283.96 101.391 1284.41 101.356 1284.47 100.466C1284.56 99.3192 1284.43 99.3041 1284.02 98.3397C1283.6 97.3275 1283.75 96.1254 1283.93 95.0777C1284.17 93.7144 1283.49 91.9542 1283.32 90.5574C1283.13 89.0586 1283.01 87.5535 1282.84 86.0507C1282.68 84.6058 1282.02 82.8619 1282.53 81.4629C1282.72 80.9433 1283.09 78.5745 1283.79 79.4137C1284.47 80.222 1285.28 80.981 1285.99 81.832C1287.83 84.0474 1291.68 84.383 1293.97 86.1539C1295.95 87.6923 1297.5 89.7123 1298.56 91.9886C1299.2 93.3507 1299.18 94.49 1299.06 95.9664C1298.95 97.3904 1298.46 98.9023 1299.13 100.264C1299.75 101.517 1305.05 98.6108 1305.84 97.7705C1306.62 96.9353 1307.65 96.2786 1308.14 95.1987C1308.9 93.5199 1307.36 92.6321 1306.41 91.6161C1305.59 90.7419 1305.29 88.8481 1305.05 87.6696C1304.18 86.6489 1303.65 85.3787 1302.68 84.4741C1301.51 83.3813 1300.4 82.2217 1299.29 81.0632C1298.74 80.4827 1298.18 79.9024 1297.62 79.3288C1296.99 78.6861 1296.99 78.0447 1296.45 77.3419C1295.05 75.5372 1294.72 71.6859 1294.42 69.4745C1293.94 66.0131 1293.84 62.5743 1293 59.1667C1291.71 53.9953 1289.05 50.6323 1285.26 47.1851C1280.94 43.255 1276.01 39.7445 1270.14 38.6741C1268.65 38.4019 1267.06 37.9311 1265.54 38.088C1264.18 38.2271 1262.81 38.897 1261.56 39.3994C1258.54 40.6052 1255.65 41.7495 1252.35 41.2961C1250.99 41.1101 1249.66 40.7702 1248.32 40.5263C1246.4 40.1768 1245.04 40.3093 1243.19 40.907C1241.4 41.4824 1240.77 41.1936 1239.16 40.48C1237.75 39.8599 1235.67 40.6596 1234.35 41.2218C1232.74 41.9136 1231.51 42.7165 1229.73 42.9107C1228.98 43.0015 1228.22 43.0403 1227.46 43.0268C1226.55 42.998 1226.05 43.4496 1225.18 43.6695C1223.69 44.0413 1221.97 43.7764 1220.57 44.4299C1218.97 45.1801 1218.03 46.1073 1216.98 47.5117C1214.98 50.191 1213.13 52.9875 1211.45 55.8867C1211.12 57.3544 1210.55 58.7648 1210.51 60.2876C1210.46 62.026 1211.07 63.7214 1211.63 65.3385C1212.1 66.6771 1213.18 68.6051 1212.17 69.8664C1211.28 70.9699 1210.1 72.049 1208.88 72.7531C1206.39 74.6681 1203.3 76.1927 1200.15 76.4586C1200.37 78.5324 1204.84 77.7874 1205.99 77.5148C1208.62 76.8968 1211.03 75.7063 1213.39 74.413C1214.64 77.8325 1213.63 81.3537 1214.54 84.79ZM1221.01 79.3397C1221.15 77.3508 1220.94 75.345 1220.73 73.3698C1220.54 71.6885 1219.73 69.2771 1220.91 67.9784C1221.94 66.8383 1223.13 66.1336 1224.69 66.0392C1226.16 65.3738 1228.01 66.2338 1229.36 66.6855C1230.32 66.9973 1231.29 67.2514 1232.28 67.4464C1233.45 67.6899 1233.77 67.5348 1234.1 68.7083C1234.65 70.6295 1236.04 69.753 1237.27 68.9545C1237.98 68.4897 1239.02 69.1697 1239.76 69.5327C1239.91 70.4719 1239.92 71.4184 1239.91 72.3683C1239.89 74.0249 1238.47 75.738 1237.92 77.3237C1237.32 79.1078 1236.62 80.8391 1235.95 82.5985C1235.61 83.4953 1235.12 84.2409 1234.87 85.1564C1234.69 85.7741 1234.41 86.9745 1233.99 87.4572C1233.6 88.1171 1233.79 89.0294 1232.58 88.518C1231.97 88.261 1231.89 88.2766 1231.87 87.5233C1231.84 86.7686 1231.24 86.9761 1230.96 87.4587C1230.31 88.5738 1229.42 89.6837 1228.15 90.1452C1226.43 90.1455 1224.76 89.6353 1223.33 88.6785C1221.82 87.6729 1221.15 86.0977 1220.56 84.3918C1220.47 82.7762 1220.9 80.9581 1221.01 79.3397Z" fill="#092911"/>
<path fill-rule="evenodd" clip-rule="evenodd" d="M1321 67.4643C1321 67.4643 1323.22 65.645 1325.12 63.6717C1327.26 61.4577 1329.11 59.6104 1330.24 59.4696C1332.07 59.241 1333.53 59.9996 1335.31 61.2524C1340.12 64.6263 1345.62 70.7257 1352.24 73.3157C1362.25 77.2294 1374.2 76.5107 1374.2 76.5107L1370.97 79.3278L1375.69 83.3074L1362.14 85.0727L1362.63 89.6024C1361.64 89.5732 1355.6 88.0724 1348.66 86.2402C1342.88 84.7146 1337.52 83.2596 1333.79 79.0803C1330.59 75.5024 1326.74 69.4082 1326.13 68.9848C1324.19 67.6225 1321 67.4643 1321 67.4643Z" fill="#092911" stroke="#092911" stroke-width="1.69908" stroke-linecap="round" stroke-linejoin="round"/>
<path fill-rule="evenodd" clip-rule="evenodd" d="M1341.79 73.043L1356.51 80.9297L1362.23 85.0597" fill="#092911"/>
<path d="M1341.79 73.043L1356.51 80.9297L1362.23 85.0597" stroke="#092911" stroke-width="1.69908" stroke-linecap="round" stroke-linejoin="round"/>
<path fill-rule="evenodd" clip-rule="evenodd" d="M1356.42 81.0247L1350.77 82.1594L1362.06 86.7804" fill="#092911"/>
<path d="M1356.42 81.0247L1350.77 82.1594L1362.06 86.7804" stroke="#092911" stroke-width="1.69908" stroke-linecap="round" stroke-linejoin="round"/>
<path fill-rule="evenodd" clip-rule="evenodd" d="M1339.44 78.7422L1348.61 86.2361L1339.44 78.7422Z" fill="#092911"/>
<path d="M1339.44 78.7422L1348.61 86.2361" stroke="#092911" stroke-width="1.69908" stroke-linecap="round" stroke-linejoin="round"/>
<path fill-rule="evenodd" clip-rule="evenodd" d="M1370.75 79.157L1361.52 80.3594L1370.75 79.157Z" fill="#092911"/>
<path d="M1370.75 79.157L1361.52 80.3594" stroke="#092911" stroke-width="1.69908" stroke-linecap="round" stroke-linejoin="round"/>
<path d="M1332.58 65.1566C1332.61 65.3759 1332.6 65.5983 1332.54 65.8113C1332.49 66.0242 1332.4 66.2234 1332.27 66.3976C1332.15 66.5717 1331.99 66.7173 1331.81 66.8261C1331.63 66.9349 1331.43 67.0048 1331.23 67.0316C1331.02 67.0585 1330.81 67.042 1330.61 66.9828C1330.41 66.9237 1330.22 66.8232 1330.05 66.6871C1329.88 66.551 1329.74 66.3819 1329.64 66.1895C1329.53 65.9971 1329.46 65.7852 1329.44 65.5659C1329.41 65.3466 1329.42 65.1241 1329.47 64.9112C1329.53 64.6983 1329.62 64.4991 1329.74 64.3249C1329.87 64.1508 1330.03 64.0052 1330.21 63.8964C1330.38 63.7876 1330.58 63.7177 1330.79 63.6908C1331 63.664 1331.21 63.6805 1331.41 63.7397C1331.61 63.7988 1331.8 63.8993 1331.97 64.0354C1332.13 64.1715 1332.27 64.3406 1332.38 64.533C1332.48 64.7253 1332.55 64.9373 1332.58 65.1566Z" fill="#092911"/>
<path d="M1343.24 84.9372L1339.42 89.3296L1333.72 91.57" stroke="#092911" stroke-width="1.69908"/>
<path d="M1339.51 89.2188L1342.48 91.3282" stroke="#092911" stroke-width="1.69908"/>
<path d="M1349.64 86.501L1350.77 93.6435" stroke="#092911" stroke-width="1.69908"/>
<path d="M1346.23 95.6321C1346.23 95.6321 1348.73 93.8796 1350.96 93.5641C1353.19 93.2485 1355.16 94.3699 1355.16 94.3699" stroke="#092911" stroke-width="1.69908"/>
<path fill-rule="evenodd" clip-rule="evenodd" d="M1374.73 60.4647C1374.73 60.4647 1376.95 58.6455 1378.85 56.6722C1381 54.4582 1382.84 52.6109 1383.97 52.4701C1385.8 52.2414 1387.26 53.0001 1389.04 54.2529C1393.85 57.6268 1399.35 63.7262 1405.97 66.3162C1415.98 70.2299 1427.93 69.5112 1427.93 69.5112L1424.7 72.3283L1429.42 76.3079L1415.87 78.0732L1416.36 82.6029C1415.37 82.5737 1409.33 81.0729 1402.39 79.2407C1396.61 77.7151 1391.25 76.2601 1387.52 72.0808C1384.32 68.5029 1380.47 62.4087 1379.86 61.9853C1377.92 60.623 1374.73 60.4647 1374.73 60.4647Z" fill="#092911" stroke="#092911" stroke-width="1.69908" stroke-linecap="round" stroke-linejoin="round"/>
<path fill-rule="evenodd" clip-rule="evenodd" d="M1395.53 66.0435L1410.24 73.9302L1415.96 78.0602" fill="#092911"/>
<path d="M1395.53 66.0435L1410.24 73.9302L1415.96 78.0602" stroke="#092911" stroke-width="1.69908" stroke-linecap="round" stroke-linejoin="round"/>
<path fill-rule="evenodd" clip-rule="evenodd" d="M1410.15 74.0252L1404.5 75.1599L1415.79 79.7809" fill="#092911"/>
<path d="M1410.15 74.0252L1404.5 75.1599L1415.79 79.7809" stroke="#092911" stroke-width="1.69908" stroke-linecap="round" stroke-linejoin="round"/>
<path fill-rule="evenodd" clip-rule="evenodd" d="M1393.17 71.7427L1402.34 79.2366L1393.17 71.7427Z" fill="#092911"/>
<path d="M1393.17 71.7427L1402.34 79.2366" stroke="#092911" stroke-width="1.69908" stroke-linecap="round" stroke-linejoin="round"/>
<path fill-rule="evenodd" clip-rule="evenodd" d="M1424.48 72.1574L1415.25 73.3599L1424.48 72.1574Z" fill="#092911"/>
<path d="M1424.48 72.1574L1415.25 73.3599" stroke="#092911" stroke-width="1.69908" stroke-linecap="round" stroke-linejoin="round"/>
<path d="M1386.31 58.1571C1386.34 58.3764 1386.33 58.5988 1386.27 58.8117C1386.22 59.0247 1386.13 59.2239 1386 59.398C1385.88 59.5722 1385.72 59.7178 1385.54 59.8266C1385.36 59.9354 1385.16 60.0052 1384.96 60.0321C1384.75 60.059 1384.54 60.0424 1384.34 59.9833C1384.14 59.9242 1383.95 59.8237 1383.78 59.6876C1383.61 59.5515 1383.48 59.3824 1383.37 59.19C1383.26 58.9976 1383.2 58.7857 1383.17 58.5664C1383.14 58.3471 1383.15 58.1246 1383.2 57.9117C1383.26 57.6988 1383.35 57.4995 1383.47 57.3254C1383.6 57.1513 1383.76 57.0057 1383.94 56.8969C1384.12 56.7881 1384.31 56.7182 1384.52 56.6913C1384.73 56.6644 1384.94 56.681 1385.14 56.7401C1385.34 56.7993 1385.53 56.8998 1385.7 57.0359C1385.86 57.172 1386 57.3411 1386.11 57.5334C1386.21 57.7258 1386.28 57.9377 1386.31 58.1571Z" fill="#092911"/>
<path d="M1396.98 77.9377L1393.15 82.3301L1387.45 84.5705" stroke="#092911" stroke-width="1.69908"/>
<path d="M1393.24 82.2192L1396.21 84.3287" stroke="#092911" stroke-width="1.69908"/>
<path d="M1403.37 79.5015L1404.5 86.644" stroke="#092911" stroke-width="1.69908"/>
<path d="M1399.97 88.6326C1399.97 88.6326 1402.46 86.8801 1404.69 86.5646C1406.92 86.249 1408.89 87.3703 1408.89 87.3703" stroke="#092911" stroke-width="1.69908"/>
<path fill-rule="evenodd" clip-rule="evenodd" d="M1428.46 53.4652C1428.46 53.4652 1430.68 51.646 1432.59 49.6727C1434.73 47.4586 1436.58 45.6114 1437.7 45.4706C1439.53 45.2419 1440.99 46.0006 1442.77 47.2534C1447.58 50.6273 1453.08 56.7267 1459.7 59.3167C1469.71 63.2303 1481.66 62.5117 1481.66 62.5117L1478.44 65.3288L1483.15 69.3084L1469.6 71.0737L1470.09 75.6034C1469.1 75.5742 1463.06 74.0734 1456.12 72.2412C1450.35 70.7156 1444.99 69.2606 1441.25 65.0813C1438.06 61.5034 1434.2 55.4092 1433.6 54.9858C1431.65 53.6235 1428.46 53.4652 1428.46 53.4652Z" fill="#092911" stroke="#092911" stroke-width="1.69908" stroke-linecap="round" stroke-linejoin="round"/>
<path fill-rule="evenodd" clip-rule="evenodd" d="M1449.26 59.0439L1463.97 66.9307L1469.7 71.0607" fill="#092911"/>
<path d="M1449.26 59.0439L1463.97 66.9307L1469.7 71.0607" stroke="#092911" stroke-width="1.69908" stroke-linecap="round" stroke-linejoin="round"/>
<path fill-rule="evenodd" clip-rule="evenodd" d="M1463.88 67.0257L1458.23 68.1603L1469.52 72.7814" fill="#092911"/>
<path d="M1463.88 67.0257L1458.23 68.1603L1469.52 72.7814" stroke="#092911" stroke-width="1.69908" stroke-linecap="round" stroke-linejoin="round"/>
<path fill-rule="evenodd" clip-rule="evenodd" d="M1446.9 64.7432L1456.07 72.237L1446.9 64.7432Z" fill="#092911"/>
<path d="M1446.9 64.7432L1456.07 72.237" stroke="#092911" stroke-width="1.69908" stroke-linecap="round" stroke-linejoin="round"/>
<path fill-rule="evenodd" clip-rule="evenodd" d="M1478.21 65.1579L1468.98 66.3604L1478.21 65.1579Z" fill="#092911"/>
<path d="M1478.21 65.1579L1468.98 66.3604" stroke="#092911" stroke-width="1.69908" stroke-linecap="round" stroke-linejoin="round"/>
<path d="M1440.04 51.1576C1440.07 51.3768 1440.06 51.5993 1440 51.8122C1439.95 52.0252 1439.86 52.2244 1439.73 52.3985C1439.61 52.5727 1439.45 52.7183 1439.27 52.8271C1439.09 52.9359 1438.89 53.0057 1438.69 53.0326C1438.48 53.0595 1438.27 53.0429 1438.07 52.9838C1437.87 52.9247 1437.68 52.8242 1437.51 52.6881C1437.35 52.552 1437.21 52.3829 1437.1 52.1905C1437 51.9981 1436.93 51.7862 1436.9 51.5669C1436.87 51.3476 1436.88 51.1251 1436.93 50.9122C1436.99 50.6993 1437.08 50.5 1437.2 50.3259C1437.33 50.1518 1437.49 50.0061 1437.67 49.8973C1437.85 49.7885 1438.05 49.7187 1438.25 49.6918C1438.46 49.6649 1438.67 49.6815 1438.87 49.7406C1439.07 49.7998 1439.26 49.9002 1439.43 50.0364C1439.59 50.1725 1439.73 50.3416 1439.84 50.5339C1439.94 50.7263 1440.01 50.9382 1440.04 51.1576Z" fill="#092911"/>
<path d="M1450.71 70.9382L1446.88 75.3306L1441.18 77.571" stroke="#092911" stroke-width="1.69908"/>
<path d="M1446.97 75.2197L1449.94 77.3292" stroke="#092911" stroke-width="1.69908"/>
<path d="M1457.1 72.502L1458.23 79.6445" stroke="#092911" stroke-width="1.69908"/>
<path d="M1453.7 81.6331C1453.7 81.6331 1456.19 79.8806 1458.42 79.5651C1460.65 79.2495 1462.62 80.3708 1462.62 80.3708" stroke="#092911" stroke-width="1.69908"/>
<path d="M1508.59 70.5706C1508.26 71.3711 1506.4 72.487 1505.08 72.6365C1504.41 72.774 1502.91 72.9607 1502.24 72.6081C1501.42 72.1674 1499.84 68.7023 1499.48 67.554C1499.12 66.4057 1497.71 61.9299 1497.19 60.5713C1496.77 59.4845 1496.24 55.5523 1496.03 53.7221C1495.75 53.5752 1495.08 53.1835 1494.6 52.7921C1494.01 52.3029 1491.49 47.2003 1496.01 44.071C1495.55 40.0116 1501.7 37.0361 1504.06 36.551C1506.42 36.0659 1506.89 35.9689 1510.34 36.6038C1513.11 37.1117 1515.23 41.8318 1515.95 44.1284C1516.23 43.9073 1517.28 43.5373 1519.21 43.8253C1521.14 44.1132 1522.07 45.5599 1522.29 46.2472L1524.22 55.6275C1524.48 56.9173 1524.4 60.1114 1523.82 61.4538C1523.35 62.5276 1521.01 63.1707 1519.9 63.358L1520.36 65.5858C1520.5 66.2893 1520.47 68.4969 1520.3 69.5077C1520.14 70.5185 1519.03 71.1128 1517.52 71.5453C1516.01 71.9779 1513.25 71.6907 1512.04 71.2055C1511.08 70.8173 1510.32 67.4048 1510.06 65.7471L1508.41 66.0867C1508.58 67.3145 1508.85 69.9301 1508.59 70.5706Z" fill="#092911"/>
<path d="M1494.53 44.7898C1493.27 45.5655 1492.24 47.4495 1492.24 48.8901C1492.21 49.2595 1492.24 50.2643 1492.7 51.3282C1493.27 52.658 1497.15 53.5446 1497.95 53.877C1498.75 54.2095 1500.24 54.4311 1503.2 54.3203C1506.17 54.2095 1506.74 52.5472 1507.54 51.6606C1508.34 50.7741 1508.23 47.3386 1508.23 46.5629C1508.23 45.7872 1507.54 45.0114 1506.63 44.2357C1505.72 43.4599 1501.61 43.3491 1500.35 43.3491C1499.09 43.3491 1495.78 44.014 1494.53 44.7898Z" fill="#0B3215"/>
</svg>
